<?xml version="1.0" encoding="UTF-8"?>
<svg id="Calque_1" xmlns="http://www.w3.org/2000/svg" version="1.1" viewBox="0 0 360 360">
  <!-- Generator: Adobe Illustrator 30.5.1, SVG Export Plug-In . SVG Version: 2.1.4 Build 3)  -->
  <defs>
    <style>
      .st0 {
        fill: #fff;
      }
    </style>
  </defs>
  <path class="st0" d="M327,360H33c-17-2.5-30.6-16.1-33-33V87.9c1.6-3.5,4.4-5,8.4-5h22.5c0,0,0-37.9,0-37.9.1-3.9,3.1-7,7-7h23.9s0-31,0-31c0-3.9,3-7,7.2-7h283.7c4.2,0,7.2,3,7.2,7.2v318.7c-2.5,18.2-15.7,31.1-33,34.1ZM14.1,322.3c0,13.8,11.7,23.7,24.2,23.6s23.6-10.5,23.6-23.9v-94.8c0-4.4,3.6-7.2,7.3-7s6.6,2.9,6.7,7v94.8c0,9.1-3,16.9-8.5,24h254.4c13.4-.1,24-10.6,24-24V14.1s-270,0-270,0v149.7c-.2,4.4-3.5,7.2-7.4,7.1s-6.7-2.9-6.7-7.1V52s-16.9,0-16.9,0v262.8c0,4.5-3.6,7.3-7.3,7.1s-6.7-2.9-6.7-7.1V97.1s-16.9,0-16.9,0v225.3Z"/>
  <path class="st0" d="M319.4,111.1H102.8c-4.1,0-7.2-3.1-7.2-7v-50.6c0-3.9,3-7,7.2-7h216.3c4.1,0,7.2,3.1,7.2,7v50.6c0,3.8-2.6,6.6-6.9,7.1ZM312.2,60.5H109.7v36.6h202.5v-36.6Z"/>
  <path class="st0" d="M211.2,279.8h-108.4c-4,0-7.1-3.1-7.1-7.1v-134.8c0-4.1,3.1-7.1,7.1-7.1h108.1c4,0,7.1,3.1,7.1,7.1v134.8c0,4-2.6,6.7-6.8,7.1ZM203.9,144.8h-94.2v120.9h94.2v-120.9Z"/>
  <path class="st0" d="M319.4,313.6H102.8c-4.3,0-7-3.2-7.1-6.7s2.6-7.3,7.1-7.3h216.3c4.2,0,7,3.2,7.1,6.7.1,3.6-2.1,6.9-6.8,7.4Z"/>
  <path class="st0" d="M319.5,144.8h-74.8c-4.1,0-6.9-3.2-7-6.7-.2-3.8,2.7-7.3,7-7.3h74.4c4.1,0,6.9,3.2,7,6.7s-2.3,7.3-6.7,7.3Z"/>
  <path class="st0" d="M319.5,178.6h-74.8c-4.1,0-6.9-3.2-7-6.7-.2-3.8,2.7-7.3,7-7.3h74.4c4.1,0,6.9,3.2,7,6.7s-2.3,7.3-6.7,7.3Z"/>
  <path class="st0" d="M319.5,212.3h-74.8c-4.1,0-6.9-3.2-7-6.7-.2-3.8,2.7-7.3,7-7.3h74.4c4.1,0,6.9,3.2,7,6.7s-2.3,7.3-6.7,7.3Z"/>
  <path class="st0" d="M319.5,246.1h-74.8c-4.1,0-6.9-3.2-7-6.7s2.7-7.3,7-7.3h74.4c4.1,0,6.9,3.2,7,6.7s-2.3,7.3-6.7,7.3Z"/>
  <path class="st0" d="M319.5,279.8h-74.8c-4.1,0-6.9-3.2-7-6.7s2.7-7.3,7-7.3h74.4c4.1,0,6.9,3.2,7,6.7s-2.3,7.3-6.7,7.3Z"/>
  <circle class="st0" cx="69.3" cy="195.5" r="7"/>
</svg>