<?xml version="1.0" encoding="UTF-8"?>
<svg id="Calque_1" xmlns="http://www.w3.org/2000/svg" version="1.1" viewBox="0 0 351.1 351.1">
  <!-- Generator: Adobe Illustrator 30.5.1, SVG Export Plug-In . SVG Version: 2.1.4 Build 3)  -->
  <defs>
    <style>
      .st0 {
        fill: #fff;
      }
    </style>
  </defs>
  <path class="st0" d="M186.5,0l3.5.6c42.2,3.3,81.4,22,111,52.2,68.5,70,66.5,182.3-4.5,249.9-67,63.8-171.9,64.6-239.8,2C24.3,274.8,4.1,234.1.6,190l-.6-3.5.3-22C6.3,75.6,76.2,6.2,164.7.3l21.9-.3ZM333.5,175.5c0-87.2-70.7-158-158-158S17.6,88.3,17.6,175.5s70.7,158,158,158,158-70.7,158-158Z"/>
  <path class="st0" d="M237.8,185.5l-96.3,64.2c-3.9,2.6-8.6,2.2-12.4.1s-6.3-5.7-6.3-10.7v-128c0-4.6,3.1-8.2,6.3-10s8.5-2.4,12.4.1l96.1,64.1c3.5,2.4,5.2,6.1,5.2,9.8s-1.2,7.7-5.1,10.3ZM221.2,175.5l-80.7-53.8v107.6s80.7-53.8,80.7-53.8Z"/>
</svg>